<?xml version="1.0" standalone="no"?><!DOCTYPE svg PUBLIC "-//W3C//DTD SVG 1.1//EN" "http://www.w3.org/Graphics/SVG/1.1/DTD/svg11.dtd"><svg t="1637739075465" class="icon" viewBox="0 0 1024 1024" version="1.1" xmlns="http://www.w3.org/2000/svg" p-id="1656" xmlns:xlink="http://www.w3.org/1999/xlink" width="200" height="200"><defs><style type="text/css"></style></defs><path d="M56.490667 936.163556a210.204444 210.204444 0 0 0 297.358222 10.410666l242.631111-226.360889a36.977778 36.977778 0 0 0 1.820444-52.736 37.091556 37.091556 0 0 0-52.736-1.820444l-242.574222 226.360889a135.850667 135.850667 0 0 1-228.295111-104.106667c1.137778-36.010667 16.668444-70.087111 43.121778-94.549333l242.460444-226.304a37.091556 37.091556 0 0 0-24.177777-64.512 37.489778 37.489778 0 0 0-26.737778 9.898666l-242.631111 226.360889a210.488889 210.488889 0 0 0-10.24 297.358223zM960.568889 96.597333a210.375111 210.375111 0 0 0-297.130667-15.587555L416.995556 303.047111a37.091556 37.091556 0 0 0-2.730667 52.679111c13.824 15.36 37.432889 16.611556 52.622222 2.730667l246.442667-222.037333a135.964444 135.964444 0 0 1 226.531555 108.088888 134.428444 134.428444 0 0 1-44.885333 93.866667l-246.215111 221.866667a37.148444 37.148444 0 0 0 23.04 64.853333c9.898667 0.568889 19.569778-2.844444 26.965333-9.443555l246.442667-222.037334a210.488889 210.488889 0 0 0 15.473778-297.073778l-0.113778 0.056889z" fill="#ffffff" p-id="1657"></path><path d="M44.714667 415.402667h149.162666c9.841778 0 19.285333-3.982222 26.168889-11.036445a37.148444 37.148444 0 0 0-26.168889-63.431111l-148.992 0.170667a37.148444 37.148444 0 1 0-0.113777 74.296889H44.714667z m133.688889-157.696a30.72 30.72 0 0 0 21.731555 8.874666 30.72 30.72 0 0 0 21.788445-52.565333L134.712889 126.862222a30.549333 30.549333 0 0 0-43.52 0 30.72 30.72 0 0 0 0 43.52L178.403556 257.706667z m479.345777 491.747555a37.148444 37.148444 0 0 0-37.205333 37.091556l0.113778 148.992a37.091556 37.091556 0 1 0 74.296889 0.056889v-149.105778a37.205333 37.205333 0 0 0-37.262223-37.034667z m297.927111-148.821333h-149.048888a36.408889 36.408889 0 0 0-26.168889 10.922667 37.091556 37.091556 0 0 0 26.168889 63.488l148.935111-0.113778a36.977778 36.977778 0 0 0 37.148444-37.148445 36.977778 36.977778 0 0 0-36.977778-37.148444h-0.113777z m-133.688888 157.696a30.549333 30.549333 0 0 0-21.788445-8.874667 30.72 30.72 0 0 0-21.731555 52.451556l87.210666 87.267555a30.606222 30.606222 0 0 0 43.576889 0 30.72 30.72 0 0 0 0-43.52l-87.267555-87.324444zM342.641778 266.581333a36.977778 36.977778 0 0 0 37.205333-37.148444l-0.113778-149.048889a37.148444 37.148444 0 1 0-74.296889 0v149.162667c0.113778 20.48 16.782222 37.034667 37.319112 36.977777h-0.113778z" fill="#ffffff" p-id="1658"></path></svg>